<?xml version="1.0" standalone="no"?>
<!DOCTYPE svg PUBLIC "-//W3C//DTD SVG 20010904//EN"
 "http://www.w3.org/TR/2001/REC-SVG-20010904/DTD/svg10.dtd">
<svg version="1.0" xmlns="http://www.w3.org/2000/svg"
 width="500.000000pt" height="500.000000pt" viewBox="0 0 500.000000 500.000000"
 preserveAspectRatio="xMidYMid meet">

<g transform="translate(0.000000,500.000000) scale(0.100000,-0.100000)"
fill="#000000" stroke="none">
<path d="M2296 4439 c-175 -18 -387 -75 -557 -149 -470 -204 -868 -635 -1025
-1110 -15 -47 -29 -87 -31 -89 -1 -2 -19 4 -39 14 -121 57 -238 -84 -285 -346
-17 -95 -17 -303 0 -398 59 -329 229 -458 361 -275 32 44 35 54 35 119 -1 38
-7 117 -14 175 -28 219 4 519 80 745 194 575 692 1026 1284 1161 500 114 1045
0 1452 -305 627 -469 872 -1279 612 -2018 -199 -563 -689 -996 -1278 -1129
l-105 -23 -26 24 c-63 61 -211 94 -332 75 -198 -30 -294 -151 -203 -257 113
-132 436 -131 553 2 30 34 46 44 82 50 25 4 95 21 155 38 446 125 822 403
1080 800 68 105 162 301 200 415 27 82 27 83 47 65 32 -29 106 -24 151 10 192
146 224 743 54 994 -57 83 -123 111 -188 79 -18 -9 -36 -13 -40 -9 -3 5 -17
40 -29 78 -74 230 -239 500 -425 694 -403 420 -984 632 -1569 570z"/>
<path d="M2260 4065 c-521 -86 -972 -444 -1170 -928 -124 -305 -146 -666 -59
-983 20 -73 74 -216 103 -272 13 -25 10 -54 -36 -307 -43 -247 -48 -285 -37
-320 24 -83 89 -135 169 -135 22 0 156 20 296 46 l257 45 91 -39 c212 -92 346
-122 581 -129 155 -4 197 -2 302 16 378 66 715 267 949 567 358 459 421 1092
159 1614 -76 151 -161 267 -289 396 -217 217 -458 349 -759 415 -122 27 -432
35 -557 14z m530 -130 c172 -38 346 -112 496 -211 109 -71 298 -258 372 -366
282 -414 326 -936 116 -1396 -55 -121 -157 -266 -265 -377 -195 -200 -410
-323 -689 -393 -97 -24 -121 -26 -315 -26 -181 0 -223 3 -301 21 -113 28 -250
76 -333 117 l-64 33 -156 -28 c-86 -15 -213 -37 -283 -49 -69 -13 -138 -20
-152 -16 -47 12 -49 31 -16 213 16 92 39 223 51 290 l22 123 -41 87 c-88 192
-121 334 -129 555 -7 201 9 314 68 493 117 353 369 641 709 813 102 51 271
107 383 127 111 19 422 13 527 -10z"/>
<path d="M1744 3220 c-164 -25 -327 -139 -397 -276 -61 -120 -76 -281 -37
-405 56 -184 214 -330 398 -368 36 -7 295 -11 795 -11 817 0 813 0 930 62 173
93 280 269 280 463 0 152 -50 278 -151 380 -64 64 -116 97 -211 134 l-66 26
-745 1 c-410 1 -768 -1 -796 -6z m423 -233 c69 -36 120 -88 152 -156 35 -75
37 -202 4 -273 -30 -66 -96 -133 -162 -165 -48 -24 -68 -28 -141 -28 -71 0
-94 4 -140 26 -115 55 -180 152 -188 281 -5 88 10 143 58 212 33 49 98 98 158
121 62 24 195 15 259 -18z m1018 3 c63 -31 124 -92 156 -155 20 -43 24 -64 24
-145 0 -84 -3 -101 -28 -147 -36 -69 -88 -120 -156 -152 -47 -22 -70 -26 -141
-26 -73 0 -93 4 -141 28 -66 32 -132 99 -162 165 -33 71 -31 198 4 272 31 65
84 122 142 152 66 33 86 37 172 35 61 -2 92 -8 130 -27z"/>
<path d="M1921 2943 c-26 -9 -65 -36 -91 -62 -127 -127 -98 -340 58 -424 108
-58 224 -43 314 41 147 137 96 378 -95 449 -45 16 -134 14 -186 -4z m220 -109
c49 -45 38 -127 -21 -157 -65 -33 -135 10 -135 82 0 83 97 129 156 75z"/>
<path d="M2953 2947 c-99 -37 -171 -131 -180 -235 -14 -161 132 -306 293 -289
136 14 241 127 243 263 2 113 -72 223 -174 257 -56 19 -135 21 -182 4z m220
-127 c33 -37 35 -77 6 -114 -30 -38 -64 -49 -105 -36 -43 14 -64 44 -64 90 0
93 99 130 163 60z"/>
</g>
</svg>
